<?xml version="1.0" encoding="utf-8"?>
<!-- Generator: Adobe Illustrator 24.2.1, SVG Export Plug-In . SVG Version: 6.00 Build 0)  -->
<svg version="1.1" id="Layer_1" xmlns="http://www.w3.org/2000/svg" xmlns:xlink="http://www.w3.org/1999/xlink" x="0px" y="0px"
	 viewBox="0 0 995.7 230.3" style="enable-background:new 0 0 995.7 230.3;" xml:space="preserve">
<style type="text/css">
	.st0{fill-rule:evenodd;clip-rule:evenodd;fill:#05BBB7;}
	.st1{fill-rule:evenodd;clip-rule:evenodd;fill:#104C89;}
</style>
<g>
	<g>
		<path class="st0" d="M769.3,152.8c0-23.3,0-46.6,0-70c0-2.4-0.2-2.1,2.2-2.1c21.4,0,42.8,0,64.2,0c2.3,0,2.1-0.2,2.1,2
			c0,23.8,0,47.6,0,71.5c0,2.3-0.2,2.1,2.1,2.1c23.8,0,47.6,0,71.4,0c2.3,0,2.1-0.3,2.1,2.1c0,21.5,0,43.1,0,64.6c0,2.2,0.2,2-2,2
			c-46.7,0-93.4,0-140.1,0c-0.3,0-0.7,0-1,0c-0.6,0-0.9-0.2-0.9-0.9c0-0.5,0-1,0-1.5C769.3,199.3,769.3,176,769.3,152.8z"/>
		<path class="st0" d="M844.9,77.3c0-23,0-46.1,0-69.1c0-0.3,0-0.7,0-1c0-1.8,0-1.8,1.8-1.8c19.8,0,39.5,0,59.3,0
			c26.9,0,53.7,0,80.6,0c2.3,0,2.1-0.2,2.1,2.1c0,21.5,0,43.1,0,64.6c0,2.1,0.3,2.1-2.1,2.1c-23.7,0-47.4,0-71.1,0
			c-2.8,0-2.4-0.3-2.4,2.5c0,23.5,0,47.1,0,70.6c0,2.3,0.3,2.1-2,2.1c-21.4,0-42.8,0-64.2,0c-0.4,0-0.8,0-1.2,0
			c-0.7,0-0.9-0.3-0.9-0.9c0-0.5,0-1,0-1.5C844.9,123.8,844.9,100.5,844.9,77.3z"/>
		<path class="st0" d="M920,152.7c0-23.3,0-46.5,0-69.8c0-2.6-0.1-2.2,2.3-2.2c21.5,0,43,0,64.5,0c2.3,0,2-0.1,2,2.1
			c0,46.6,0,93.3,0,139.9c0,2.5,0.3,2.2-2.3,2.2c-21.5,0-43,0-64.5,0c-2.2,0-2,0.3-2-2.1C920,199.5,920,176.1,920,152.7z"/>
	</g>
	<g>
		<path class="st1" d="M709.7,100h-12.4h-12.4v12.4v12.4v12.4h12.4h12.4v6.2l-6.2,6.2h-6.2H691v12.4h6.2h12.4l12.4-12.4v-12.4v-12.4
			v-12.4V100H709.7z M709.7,124.8h-12.4v-12.4h12.4V124.8z"/>
		<polygon class="st1" points="709.7,199.5 709.7,205.7 703.4,211.9 697.2,211.9 697.2,199.5 697.2,187 684.8,187 684.8,199.5 
			684.8,211.9 672.3,211.9 672.3,199.5 672.3,187 659.9,187 659.9,199.5 659.9,211.9 647.5,211.9 641.2,211.9 641.2,199.5 
			641.2,187 641.2,174.6 628.8,174.6 628.8,187 628.8,199.5 628.8,211.9 628.8,224.3 641.2,224.3 647.5,224.3 659.9,224.3 
			672.3,224.3 684.8,224.3 697.2,224.3 709.7,224.3 722.1,211.9 722.1,199.5 722.1,187 709.7,187 		"/>
		<path class="st1" d="M591.5,187h-12.4v12.4v12.4h-12.4v-12.4V187v-12.4h-12.4V187v12.4v12.4v12.4h12.4h12.4h12.4h12.4h12.4v-12.4
			v-12.4L603.9,187H591.5z M591.5,211.9v-12.4h6.2l6.2,6.2v6.2H591.5z"/>
		<path class="st1" d="M529.3,199.5v6.2l-6.2,6.2h-6.2v-12.4V187h-12.4H492l-12.4,12.4v12.4v12.4H492h12.4h6.2l6.2-6.2v6.2h12.4
			l12.4-12.4v-12.4V187h-12.4V199.5z M492,211.9v-6.2l6.2-6.2h6.2v12.4H492z"/>
		<rect x="628.8" y="149.7" class="st1" width="12.4" height="12.4"/>
		<rect x="647.5" y="149.7" class="st1" width="12.4" height="12.4"/>
		<rect x="501.3" y="81.3" class="st1" width="12.4" height="12.4"/>
		<rect x="520" y="81.3" class="st1" width="12.4" height="12.4"/>
		<polygon class="st1" points="380.1,112.4 367.6,112.4 367.6,124.8 367.6,137.3 367.6,149.7 367.6,162.2 367.6,174.6 355.2,187 
			342.8,187 336.5,187 336.5,174.6 336.5,162.2 336.5,149.7 336.5,137.3 336.5,124.8 336.5,112.4 324.1,112.4 311.7,112.4 
			299.2,112.4 299.2,124.8 299.2,137.3 299.2,149.7 299.2,162.2 299.2,174.6 299.2,187 286.8,187 274.3,187 268.1,187 268.1,174.6 
			268.1,162.2 268.1,149.7 268.1,137.3 268.1,124.8 268.1,112.4 255.7,112.4 243.3,112.4 230.8,112.4 230.8,124.8 230.8,137.3 
			230.8,149.7 230.8,162.2 230.8,174.6 230.8,187 218.4,187 205.9,187 193.5,187 181.1,187 168.6,187 156.2,187 143.8,187 
			131.3,187 118.9,187 106.4,187 94,187 81.6,187 69.1,187 56.7,187 44.3,187 44.3,174.6 44.3,162.2 44.3,149.7 44.3,137.3 
			44.3,124.8 44.3,112.4 44.3,100 44.3,87.5 44.3,81.3 31.8,81.3 19.4,81.3 6.9,81.3 6.9,87.5 6.9,100 6.9,112.4 6.9,124.8 
			6.9,137.3 6.9,149.7 6.9,162.2 6.9,174.6 6.9,187 6.9,199.5 6.9,211.9 6.9,224.3 19.4,224.3 31.8,224.3 44.3,224.3 56.7,224.3 
			69.1,224.3 81.6,224.3 94,224.3 106.4,224.3 118.9,224.3 131.3,224.3 143.8,224.3 156.2,224.3 168.6,224.3 181.1,224.3 
			193.5,224.3 205.9,224.3 218.4,224.3 230.8,224.3 243.3,224.3 255.7,224.3 268.1,224.3 274.3,224.3 286.8,224.3 299.2,224.3 
			311.7,224.3 324.1,224.3 336.5,224.3 342.8,224.3 355.2,224.3 367.6,224.3 380.1,224.3 392.5,211.9 404.9,199.5 404.9,187 
			404.9,174.6 404.9,162.2 404.9,149.7 404.9,137.3 404.9,124.8 404.9,112.4 392.5,112.4 		"/>
		<rect x="529.3" y="168.4" class="st1" width="12.4" height="12.4"/>
		<polygon class="st1" points="641.2,137.3 647.5,131.1 647.5,137.3 659.9,137.3 672.3,124.8 672.3,112.4 672.3,100 659.9,100 
			659.9,112.4 659.9,118.6 653.7,124.8 647.5,124.8 647.5,112.4 647.5,100 635,100 635,112.4 635,124.8 622.6,124.8 622.6,112.4 
			622.6,100 610.2,100 610.2,112.4 610.2,124.8 597.7,124.8 597.7,112.4 597.7,100 585.3,100 585.3,112.4 585.3,124.8 572.8,124.8 
			560.4,124.8 548,124.8 535.5,124.8 529.3,124.8 523.1,124.8 523.1,112.4 523.1,100 510.7,100 510.7,112.4 510.7,124.8 
			498.2,124.8 492,124.8 492,112.4 492,100 492,87.5 492,81.3 479.6,81.3 479.6,87.5 479.6,100 479.6,112.4 479.6,124.8 
			479.6,137.3 492,137.3 498.2,137.3 510.7,137.3 516.9,137.3 523.1,131.1 523.1,137.3 535.5,137.3 548,137.3 560.4,137.3 
			572.8,137.3 585.3,137.3 597.7,137.3 610.2,137.3 622.6,137.3 635,137.3 		"/>
		<polygon class="st1" points="429.8,93.8 417.4,106.2 417.4,118.6 417.4,124.8 417.4,137.3 417.4,149.7 417.4,162.2 417.4,174.6 
			417.4,187 417.4,199.5 417.4,211.9 417.4,224.3 429.8,224.3 442.3,224.3 454.7,224.3 454.7,211.9 454.7,199.5 454.7,187 
			454.7,174.6 454.7,162.2 454.7,149.7 454.7,137.3 454.7,124.8 454.7,118.6 454.7,106.2 454.7,93.8 454.7,81.3 442.3,81.3 		"/>
	</g>
</g>
</svg>
